<svg width="35" height="41" viewBox="0 0 35 41" fill="none" xmlns="http://www.w3.org/2000/svg">
<path d="M15.5328 22.461C13.6262 22.621 11.892 22.1554 10.1968 21.2527C8.549 20.3757 7.60262 20.9585 7.36044 22.8552C7.23522 23.8293 7.17116 24.8091 7.06263 25.786C6.95964 26.7201 6.14686 30.8021 6.07169 30.7907L5.4148 26.1602L1.21723 29.6452C-0.572571 31.1306 -0.352674 33.9929 1.64033 35.1726L8.35139 39.1489C12.5155 41.617 17.6455 41.617 21.8097 39.1489L33.2472 32.3703C35.2402 31.1906 35.602 28.3912 33.9792 26.7172L22.2718 14.6483C23.4074 14.5684 24.5654 14.6455 25.6398 14.377C27.4213 13.9342 28.209 12.4231 27.8443 10.5635C27.6579 9.60941 26.9815 9.59227 26.2578 9.70651C25.5034 9.82654 24.7519 9.98365 23.9948 10.1065C23.8973 10.1236 23.7804 10.0236 23.6747 9.97791C25.7066 4.20483 22.9064 0.816972 19.5439 0C21.0136 1.52825 21.0442 3.62496 20.9746 4.8904C20.8967 6.33583 19.5077 7.56411 17.9462 7.48415C15.4382 7.35845 13.0806 7.7755 10.7897 8.8496C9.42305 9.49231 7.81973 8.52391 7.52192 6.96708C7.31593 5.89591 7.44953 5.08179 7.55532 3.92775C6.1663 4.86184 5.60961 6.8157 6.3194 9.94937C5.68479 9.99505 5.06684 10.0093 4.45447 10.095C3.13229 10.2779 2.71477 11.0348 3.10167 12.3174C3.20467 12.6631 3.07105 13.0887 3.03208 13.4743C2.94858 14.3256 2.42806 16.2366 3.39951 16.6536C3.80033 16.825 4.26518 16.9393 4.69663 16.9193C7.80302 16.7708 10.5142 17.922 13.1641 19.4245C15.3937 20.69 16.7883 20.5271 18.7089 19.0788C18.9343 20.6357 17.331 22.3125 15.5273 22.4638L15.5328 22.461ZM16.2343 10.7863C14.9455 10.7806 13.2031 10.5064 13.2031 10.5064C13.2031 10.5064 14.2998 9.46371 16.0423 9.46371C16.9413 9.46371 17.3032 9.96651 17.3032 10.4007C17.3032 10.7577 16.8217 10.7891 16.2315 10.7863H16.2343Z" fill="white"/>
</svg>
