<svg preserveAspectRatio="none" width="100%" height="100%" overflow="visible" style="display: block;" viewBox="0 0 115.069 11.043" fill="none" xmlns="http://www.w3.org/2000/svg">
<g id="Bull Points">
<g id="Bull Points_2">
<path id="Vector" d="M110.543 5.00642C114.225 5.00642 114.987 5.00642 114.638 6.9716C114.289 8.92761 113.454 9.11127 109.817 9.11127C106.346 9.11127 105.492 8.96434 105.722 7.20118C105.74 7.06344 105.878 6.94406 106.015 6.94406H107.485C107.622 6.94406 107.714 7.05425 107.696 7.192L107.687 7.25628C107.659 7.39403 107.751 7.50422 107.889 7.50422H112.315C112.453 7.50422 112.591 7.39403 112.609 7.25628L112.71 6.67774C112.737 6.54 112.646 6.4298 112.508 6.4298H110.295C106.649 6.4298 105.933 6.4298 106.282 4.46462C106.631 2.49943 107.457 2.32495 111.02 2.32495C114.427 2.32495 115.263 2.5178 115.033 4.23504C115.015 4.37278 114.877 4.49217 114.739 4.49217H113.261C113.123 4.49217 113.031 4.38197 113.059 4.24422L113.068 4.17994C113.096 4.04219 113.004 3.932 112.866 3.932H108.596C108.458 3.932 108.33 4.04219 108.302 4.17994L108.201 4.75847C108.173 4.89622 108.274 5.00642 108.412 5.00642H110.157C110.276 5.00642 110.405 5.00642 110.543 5.00642Z" fill="var(--fill-0, #F3F7E4)"/>
<path id="Vector_2" d="M105.841 2.49939C105.979 2.49939 106.071 2.61877 106.043 2.75652L105.878 3.68401C105.86 3.82176 105.722 3.93195 105.584 3.93195H102.554C102.416 3.93195 102.288 4.05134 102.26 4.18908L101.47 8.67962C101.443 8.81737 101.314 8.92757 101.176 8.92757H99.7163C99.5786 8.92757 99.4867 8.81737 99.5051 8.67962L100.304 4.18908C100.322 4.05134 100.231 3.93195 100.093 3.93195H97.0624C96.9246 3.93195 96.8328 3.82176 96.8604 3.68401L97.0257 2.75652C97.0532 2.61877 97.1818 2.49939 97.3195 2.49939H105.841Z" fill="var(--fill-0, #F3F7E4)"/>
<path id="Vector_3" d="M94.4047 2.75652C94.4322 2.61877 94.5608 2.50857 94.6985 2.49939H96.1678C96.3056 2.49939 96.3974 2.61877 96.3698 2.75652L95.323 8.67962C95.3046 8.81737 95.176 8.92757 95.0291 8.92757H92.6139C92.5405 8.92757 92.4762 8.90002 92.4395 8.84492L89.6845 5.00638C89.5652 4.8319 89.2621 4.9421 89.2162 5.17168L88.6009 8.67962C88.5734 8.81737 88.4448 8.92757 88.3071 8.92757H86.8378C86.7 8.92757 86.6082 8.81737 86.6357 8.67962L87.6826 2.75652C87.7102 2.61877 87.8387 2.50857 87.9765 2.50857L90.1896 2.49939C90.2631 2.49939 90.3274 2.53612 90.3641 2.59122L93.2843 6.65934C93.4037 6.82463 93.7067 6.71444 93.7527 6.48486L94.4047 2.75652Z" fill="var(--fill-0, #F3F7E4)"/>
<path id="Vector_4" d="M86.3604 2.50857C86.4982 2.50857 86.59 2.61877 86.5716 2.75652L85.5248 8.67962C85.4972 8.81737 85.3686 8.92757 85.2309 8.92757H83.7616C83.6239 8.92757 83.532 8.81737 83.5596 8.67962L84.6065 2.75652C84.634 2.61877 84.7626 2.49939 84.9003 2.49939L86.3604 2.50857Z" fill="var(--fill-0, #F3F7E4)"/>
<path id="Vector_5" d="M79.2137 2.32495C83.493 2.32495 83.6399 2.49943 83.0706 5.71352C82.5104 8.92761 82.3084 9.11127 78.0107 9.11127C73.7222 9.11127 73.5753 8.92761 74.1446 5.71352C74.714 2.49943 74.9344 2.32495 79.2137 2.32495ZM80.5452 7.50422C80.683 7.50422 80.8115 7.39403 80.8391 7.25628L81.3809 4.17994C81.4084 4.04219 81.3074 3.932 81.1697 3.932H76.67C76.5322 3.932 76.4037 4.04219 76.3761 4.17994L75.8343 7.25628C75.8159 7.39403 75.9078 7.50422 76.0455 7.50422H80.5452Z" fill="var(--fill-0, #F3F7E4)"/>
<path id="Vector_6" d="M71.1267 2.49943C73.6245 2.49943 73.8908 2.79329 73.5143 4.95133C73.1286 7.10936 72.8256 7.39403 70.2635 7.39403H66.8566C66.7188 7.39403 66.5811 7.50423 66.5627 7.64198L66.379 8.67967C66.3515 8.81741 66.2229 8.92761 66.0852 8.92761H64.6159C64.4781 8.92761 64.3863 8.81741 64.4138 8.67967L65.4607 2.75656C65.4883 2.61882 65.6168 2.49943 65.7546 2.49943L67.1229 2.50862V2.49943H71.1267ZM71.4573 5.53904L71.6593 4.36361C71.6869 4.22586 71.595 4.11566 71.4573 4.11566H67.4351C67.2973 4.11566 67.1688 4.22586 67.1412 4.36361L66.93 5.53904C66.9117 5.67679 67.0035 5.78699 67.1412 5.78699H71.1634C71.3012 5.78699 71.4297 5.67679 71.4573 5.53904Z" fill="var(--fill-0, #F3F7E4)"/>
<path id="Vector_7" d="M53.3997 7.25624C53.3813 7.39399 53.4731 7.50418 53.6109 7.50418H58.5697C58.7075 7.50418 58.7993 7.61438 58.781 7.75213L58.6157 8.67962C58.5881 8.81737 58.4596 8.92757 58.3218 8.92757H51.3886C51.2508 8.92757 51.159 8.81737 51.1865 8.67962L52.2334 2.75652C52.261 2.61877 52.3895 2.49939 52.5273 2.49939L53.9874 2.50857C54.1251 2.50857 54.217 2.61877 54.1986 2.75652L53.3997 7.25624Z" fill="var(--fill-0, #F3F7E4)"/>
<path id="Vector_8" d="M45.3282 7.25629C45.3099 7.39403 45.4017 7.50423 45.5395 7.50423H50.4983C50.6361 7.50423 50.7279 7.61443 50.7096 7.75217L50.5443 8.67967C50.5167 8.81741 50.3881 8.92761 50.2504 8.92761H43.3171C43.1794 8.92761 43.0876 8.81741 43.1151 8.67967L44.162 2.75656C44.1895 2.61882 44.3181 2.49943 44.4558 2.49943L45.916 2.50862C46.0537 2.50862 46.1455 2.61882 46.1272 2.75656L45.3282 7.25629Z" fill="var(--fill-0, #F3F7E4)"/>
<path id="Vector_9" d="M42.5732 5.71348C42.0038 8.92757 42.0406 9.11123 37.6878 9.11123C33.3258 9.11123 33.436 8.92757 33.9962 5.71348L34.5196 2.75652C34.5472 2.61877 34.6757 2.49939 34.8135 2.49939H36.2736C36.4113 2.49939 36.5032 2.61877 36.4848 2.75652L35.6859 7.26542C35.6675 7.40317 35.7593 7.51337 35.8971 7.51337H40.0387C40.1764 7.51337 40.305 7.40317 40.3325 7.26542L41.1314 2.75652C41.1498 2.61877 41.2876 2.49939 41.4253 2.49939H42.8854C43.0232 2.49939 43.115 2.61877 43.0874 2.75652L42.5732 5.71348Z" fill="var(--fill-0, #F3F7E4)"/>
<path id="Vector_10" d="M32.6498 5.68597C32.8334 5.86964 33.0446 6.24614 32.9161 6.98998C32.5763 8.92761 31.8784 8.92761 29.5 8.92761H24.036C23.8983 8.92761 23.8064 8.81741 23.834 8.67967L24.8809 2.75656C24.9084 2.61882 25.037 2.49943 25.1747 2.49943H30.8407C32.6314 2.49943 33.4303 2.49943 33.1089 4.29014C33.0079 4.88704 32.8243 5.19009 32.6773 5.3462C32.5763 5.4564 32.5671 5.60333 32.6498 5.68597ZM30.6111 7.50423C30.7489 7.50423 30.8774 7.39403 30.905 7.25629L31.006 6.67775C31.0244 6.54 30.9325 6.42981 30.7948 6.42981H26.442C26.3042 6.42981 26.1757 6.54 26.1481 6.67775L26.0471 7.25629C26.0288 7.39403 26.1206 7.50423 26.2583 7.50423H30.6111ZM31.3458 4.75848L31.4468 4.18913C31.4652 4.05138 31.3733 3.932 31.2356 3.932H26.6348V3.94118L26.4512 5.00642H26.442H31.0519C31.1897 5.00642 31.3182 4.89623 31.3458 4.75848Z" fill="var(--fill-0, #F3F7E4)"/>
</g>
<path id="Vector_11" d="M17.7384 1.26961C17.3972 1.82809 16.9142 2.23068 16.1622 2.17532C16.7274 2.52983 17.2142 2.42591 17.2142 2.42591C15.3103 3.27431 12.9108 -0.423302 10.1707 1.90094C7.43057 -0.423788 5.03111 3.27431 3.12712 2.42591C3.12712 2.42591 3.61399 2.52983 4.17922 2.17532C3.42718 2.23068 2.94366 1.82809 2.60299 1.26961C1.57909 -0.407762 0 -0.0143993 0 0.196365C0 0.528538 1.27426 0.305633 1.93313 2.55654C2.20452 3.48362 2.6737 4.23295 3.63884 4.35193C4.80799 4.49616 5.61975 4.3665 6.30681 4.45488C6.06648 5.06192 5.7134 5.49171 5.7134 5.49171C6.32162 5.50288 7.32307 4.97257 7.32307 4.97257C7.32307 4.97257 8.68333 5.22558 9.00106 7.17054C9.00106 7.17054 8.80851 6.72376 8.40335 6.3066C8.10282 5.99677 7.9074 6.42024 7.55957 6.27018C7.16635 6.10069 7.19454 5.43052 7.19454 5.43052C6.16921 6.51639 8.75978 8.26322 8.6088 9.48555C8.77554 9.25342 9.02734 8.29915 8.82332 7.82323C8.82332 7.82323 9.42008 8.7503 8.70531 9.89348C8.15681 10.771 10.1712 11.043 10.1712 11.043C10.1712 11.043 12.1855 10.771 11.637 9.89348C10.9222 8.74982 11.519 7.82323 11.519 7.82323C11.3155 8.29915 11.5673 9.25342 11.7335 9.48555C11.5826 8.26322 14.1731 6.51639 13.1478 5.43052C13.1478 5.43052 13.176 6.10069 12.7828 6.27018C12.4354 6.41975 12.24 5.99677 11.939 6.3066C11.5343 6.72376 11.3413 7.17054 11.3413 7.17054C11.6595 5.22558 13.0193 4.97257 13.0193 4.97257C13.0193 4.97257 14.0207 5.50288 14.6289 5.49171C14.6289 5.49171 14.2758 5.06192 14.0355 4.45488C14.7226 4.3665 15.5343 4.49567 16.7035 4.35193C17.6681 4.23295 18.1378 3.48362 18.4092 2.55654C19.0676 0.305633 20.3423 0.528538 20.3423 0.196365C20.3423 -0.0143993 18.7632 -0.407762 17.7393 1.26961H17.7384Z" fill="var(--fill-0, #FF006C)"/>
</g>
</svg>
